<mxfile modified="2020-12-29T14:08:00.864Z" host="app.diagrams.net" agent="5.0 (Macintosh)" etag="Fl-SetDIBgyKLfcSNQ9t" version="14.1.3" type="github">
  <diagram id="Ht1M8jgEwFfnCIfOTk4-" name="Page-1">
    <mxGraphModel dx="1286" dy="857" grid="1" gridSize="10" guides="1" tooltips="1" connect="1" arrows="1" fold="1" page="1" pageScale="1" pageWidth="1169" pageHeight="827" math="0" shadow="0">
      <root>
        <mxCell id="0" />
        <mxCell id="1" parent="0" />
        <mxCell id="Rv1QnF7w-KIQ6DWg-XOY-30" value="VFFL" style="fillColor=none;strokeColor=#5A6C86;verticalAlign=top;fontStyle=0;fontColor=#5A6C86;strokeWidth=2;" vertex="1" parent="1">
          <mxGeometry x="150" y="50" width="550" height="530" as="geometry" />
        </mxCell>
        <mxCell id="UEzPUAAOIrF-is8g5C7q-111" value="Amazon &lt;br&gt;Cognito" style="outlineConnect=0;fontColor=#232F3E;gradientColor=#F54749;gradientDirection=north;fillColor=#C7131F;strokeColor=#ffffff;dashed=0;verticalLabelPosition=bottom;verticalAlign=top;align=center;html=1;fontSize=12;fontStyle=0;aspect=fixed;shape=mxgraph.aws4.resourceIcon;resIcon=mxgraph.aws4.cognito;labelBackgroundColor=#ffffff;" parent="1" vertex="1">
          <mxGeometry x="260" y="74.5" width="78" height="78" as="geometry" />
        </mxCell>
        <mxCell id="UEzPUAAOIrF-is8g5C7q-114" value="Amazon API&lt;br&gt;Gateway&lt;br&gt;" style="outlineConnect=0;fontColor=#232F3E;gradientColor=#945DF2;gradientDirection=north;fillColor=#5A30B5;strokeColor=#ffffff;dashed=0;verticalLabelPosition=bottom;verticalAlign=top;align=center;html=1;fontSize=12;fontStyle=0;aspect=fixed;shape=mxgraph.aws4.resourceIcon;resIcon=mxgraph.aws4.api_gateway;labelBackgroundColor=#ffffff;" parent="1" vertex="1">
          <mxGeometry x="260" y="240" width="78" height="78" as="geometry" />
        </mxCell>
        <mxCell id="UEzPUAAOIrF-is8g5C7q-115" value="Lambda&lt;br&gt;function" style="outlineConnect=0;fontColor=#232F3E;gradientColor=none;fillColor=#D05C17;strokeColor=none;dashed=0;verticalLabelPosition=bottom;verticalAlign=top;align=center;html=1;fontSize=12;fontStyle=0;aspect=fixed;pointerEvents=1;shape=mxgraph.aws4.lambda_function;labelBackgroundColor=#ffffff;" parent="1" vertex="1">
          <mxGeometry x="420" y="240" width="78" height="78" as="geometry" />
        </mxCell>
        <mxCell id="UEzPUAAOIrF-is8g5C7q-116" value="Amazon S3" style="outlineConnect=0;fontColor=#232F3E;gradientColor=#60A337;gradientDirection=north;fillColor=#277116;strokeColor=#ffffff;dashed=0;verticalLabelPosition=bottom;verticalAlign=top;align=center;html=1;fontSize=12;fontStyle=0;aspect=fixed;shape=mxgraph.aws4.resourceIcon;resIcon=mxgraph.aws4.s3;labelBackgroundColor=#ffffff;" parent="1" vertex="1">
          <mxGeometry x="260.0000000000002" y="420" width="78" height="78" as="geometry" />
        </mxCell>
        <mxCell id="UEzPUAAOIrF-is8g5C7q-120" value="Amazon&lt;br&gt;ElasticSearch&lt;br&gt;Service&lt;br&gt;" style="outlineConnect=0;fontColor=#232F3E;gradientColor=#945DF2;gradientDirection=north;fillColor=#5A30B5;strokeColor=#ffffff;dashed=0;verticalLabelPosition=bottom;verticalAlign=top;align=center;html=1;fontSize=12;fontStyle=0;aspect=fixed;shape=mxgraph.aws4.resourceIcon;resIcon=mxgraph.aws4.elasticsearch_service;labelBackgroundColor=#ffffff;" parent="1" vertex="1">
          <mxGeometry x="585.0000000000002" y="420" width="78" height="78" as="geometry" />
        </mxCell>
        <mxCell id="Rv1QnF7w-KIQ6DWg-XOY-1" value="" style="outlineConnect=0;fontColor=#232F3E;gradientColor=none;fillColor=#232F3E;strokeColor=none;dashed=0;verticalLabelPosition=bottom;verticalAlign=top;align=center;html=1;fontSize=12;fontStyle=0;aspect=fixed;pointerEvents=1;shape=mxgraph.aws4.user;" vertex="1" parent="1">
          <mxGeometry x="40" y="240" width="78" height="78" as="geometry" />
        </mxCell>
        <mxCell id="Rv1QnF7w-KIQ6DWg-XOY-6" value="" style="outlineConnect=0;fontColor=#232F3E;gradientColor=#4D72F3;gradientDirection=north;fillColor=#3334B9;strokeColor=#ffffff;dashed=0;verticalLabelPosition=bottom;verticalAlign=top;align=center;html=1;fontSize=12;fontStyle=0;aspect=fixed;shape=mxgraph.aws4.resourceIcon;resIcon=mxgraph.aws4.documentdb_with_mongodb_compatibility;" vertex="1" parent="1">
          <mxGeometry x="585" y="240" width="78" height="78" as="geometry" />
        </mxCell>
        <mxCell id="Rv1QnF7w-KIQ6DWg-XOY-12" value="CodeCommit" style="outlineConnect=0;fontColor=#232F3E;gradientColor=#4D72F3;gradientDirection=north;fillColor=#3334B9;strokeColor=#ffffff;dashed=0;verticalLabelPosition=bottom;verticalAlign=top;align=center;html=1;fontSize=12;fontStyle=0;aspect=fixed;shape=mxgraph.aws4.resourceIcon;resIcon=mxgraph.aws4.codecommit;" vertex="1" parent="1">
          <mxGeometry x="180" y="640" width="78" height="78" as="geometry" />
        </mxCell>
        <mxCell id="Rv1QnF7w-KIQ6DWg-XOY-13" value="CodeBuild" style="outlineConnect=0;fontColor=#232F3E;gradientColor=#4D72F3;gradientDirection=north;fillColor=#3334B9;strokeColor=#ffffff;dashed=0;verticalLabelPosition=bottom;verticalAlign=top;align=center;html=1;fontSize=12;fontStyle=0;aspect=fixed;shape=mxgraph.aws4.resourceIcon;resIcon=mxgraph.aws4.codebuild;" vertex="1" parent="1">
          <mxGeometry x="300" y="640" width="78" height="78" as="geometry" />
        </mxCell>
        <mxCell id="Rv1QnF7w-KIQ6DWg-XOY-14" value="CodeDeploy" style="outlineConnect=0;fontColor=#232F3E;gradientColor=#4D72F3;gradientDirection=north;fillColor=#3334B9;strokeColor=#ffffff;dashed=0;verticalLabelPosition=bottom;verticalAlign=top;align=center;html=1;fontSize=12;fontStyle=0;aspect=fixed;shape=mxgraph.aws4.resourceIcon;resIcon=mxgraph.aws4.codedeploy;" vertex="1" parent="1">
          <mxGeometry x="420" y="640" width="78" height="78" as="geometry" />
        </mxCell>
        <mxCell id="Rv1QnF7w-KIQ6DWg-XOY-15" value="CDK" style="outlineConnect=0;fontColor=#232F3E;gradientColor=#4D72F3;gradientDirection=north;fillColor=#3334B9;strokeColor=#ffffff;dashed=0;verticalLabelPosition=bottom;verticalAlign=top;align=center;html=1;fontSize=12;fontStyle=0;aspect=fixed;shape=mxgraph.aws4.resourceIcon;resIcon=mxgraph.aws4.cloud_development_kit;" vertex="1" parent="1">
          <mxGeometry x="580" y="730" width="78" height="78" as="geometry" />
        </mxCell>
        <mxCell id="Rv1QnF7w-KIQ6DWg-XOY-16" value="" style="edgeStyle=orthogonalEdgeStyle;html=1;endArrow=block;elbow=vertical;startArrow=none;endFill=1;strokeColor=#545B64;rounded=0;" edge="1" parent="1" source="Rv1QnF7w-KIQ6DWg-XOY-12" target="Rv1QnF7w-KIQ6DWg-XOY-13">
          <mxGeometry width="100" relative="1" as="geometry">
            <mxPoint x="560" y="390" as="sourcePoint" />
            <mxPoint x="660" y="390" as="targetPoint" />
          </mxGeometry>
        </mxCell>
        <mxCell id="Rv1QnF7w-KIQ6DWg-XOY-17" value="" style="edgeStyle=orthogonalEdgeStyle;html=1;endArrow=block;elbow=vertical;startArrow=none;endFill=1;strokeColor=#545B64;rounded=0;" edge="1" parent="1" source="Rv1QnF7w-KIQ6DWg-XOY-13" target="Rv1QnF7w-KIQ6DWg-XOY-14">
          <mxGeometry width="100" relative="1" as="geometry">
            <mxPoint x="460" y="590" as="sourcePoint" />
            <mxPoint x="560" y="590" as="targetPoint" />
          </mxGeometry>
        </mxCell>
        <mxCell id="Rv1QnF7w-KIQ6DWg-XOY-18" value="" style="edgeStyle=orthogonalEdgeStyle;html=1;endArrow=block;elbow=vertical;startArrow=none;endFill=1;strokeColor=#545B64;rounded=0;dashed=1;" edge="1" parent="1" source="Rv1QnF7w-KIQ6DWg-XOY-14" target="UEzPUAAOIrF-is8g5C7q-115">
          <mxGeometry width="100" relative="1" as="geometry">
            <mxPoint x="580" y="390" as="sourcePoint" />
            <mxPoint x="680" y="390" as="targetPoint" />
          </mxGeometry>
        </mxCell>
        <mxCell id="Rv1QnF7w-KIQ6DWg-XOY-19" value="" style="edgeStyle=orthogonalEdgeStyle;html=1;endArrow=block;elbow=vertical;startArrow=none;endFill=1;strokeColor=#545B64;rounded=0;dashed=1;" edge="1" parent="1" source="Rv1QnF7w-KIQ6DWg-XOY-14" target="UEzPUAAOIrF-is8g5C7q-116">
          <mxGeometry width="100" relative="1" as="geometry">
            <mxPoint x="580" y="390" as="sourcePoint" />
            <mxPoint x="680" y="390" as="targetPoint" />
            <Array as="points">
              <mxPoint x="440" y="459" />
            </Array>
          </mxGeometry>
        </mxCell>
        <mxCell id="Rv1QnF7w-KIQ6DWg-XOY-23" value="" style="edgeStyle=orthogonalEdgeStyle;html=1;endArrow=block;elbow=vertical;startArrow=block;startFill=1;endFill=1;strokeColor=#545B64;rounded=0;" edge="1" parent="1" source="Rv1QnF7w-KIQ6DWg-XOY-1" target="UEzPUAAOIrF-is8g5C7q-114">
          <mxGeometry width="100" relative="1" as="geometry">
            <mxPoint x="529.9999999999998" y="157.5" as="sourcePoint" />
            <mxPoint x="629.9999999999998" y="157.5" as="targetPoint" />
          </mxGeometry>
        </mxCell>
        <mxCell id="Rv1QnF7w-KIQ6DWg-XOY-24" value="" style="edgeStyle=orthogonalEdgeStyle;html=1;endArrow=block;elbow=vertical;startArrow=block;startFill=1;endFill=1;strokeColor=#545B64;rounded=0;" edge="1" parent="1" source="Rv1QnF7w-KIQ6DWg-XOY-1" target="UEzPUAAOIrF-is8g5C7q-111">
          <mxGeometry width="100" relative="1" as="geometry">
            <mxPoint x="539.9999999999998" y="170" as="sourcePoint" />
            <mxPoint x="639.9999999999998" y="170" as="targetPoint" />
            <Array as="points">
              <mxPoint x="180" y="260" />
              <mxPoint x="180" y="113" />
            </Array>
          </mxGeometry>
        </mxCell>
        <mxCell id="Rv1QnF7w-KIQ6DWg-XOY-25" value="" style="edgeStyle=orthogonalEdgeStyle;html=1;endArrow=block;elbow=vertical;startArrow=block;startFill=1;endFill=1;strokeColor=#545B64;rounded=0;" edge="1" parent="1" source="Rv1QnF7w-KIQ6DWg-XOY-1" target="UEzPUAAOIrF-is8g5C7q-116">
          <mxGeometry width="100" relative="1" as="geometry">
            <mxPoint x="549.9999999999998" y="180" as="sourcePoint" />
            <mxPoint x="649.9999999999998" y="180" as="targetPoint" />
            <Array as="points">
              <mxPoint x="180" y="300" />
              <mxPoint x="180" y="459" />
            </Array>
          </mxGeometry>
        </mxCell>
        <mxCell id="Rv1QnF7w-KIQ6DWg-XOY-26" value="" style="edgeStyle=orthogonalEdgeStyle;html=1;endArrow=block;elbow=vertical;startArrow=block;startFill=1;endFill=1;strokeColor=#545B64;rounded=0;" edge="1" parent="1" source="UEzPUAAOIrF-is8g5C7q-114" target="UEzPUAAOIrF-is8g5C7q-115">
          <mxGeometry width="100" relative="1" as="geometry">
            <mxPoint x="559.9999999999998" y="187.5" as="sourcePoint" />
            <mxPoint x="460" y="278.5" as="targetPoint" />
          </mxGeometry>
        </mxCell>
        <mxCell id="Rv1QnF7w-KIQ6DWg-XOY-27" value="" style="edgeStyle=orthogonalEdgeStyle;html=1;endArrow=block;elbow=vertical;startArrow=block;startFill=1;endFill=1;strokeColor=#545B64;rounded=0;" edge="1" parent="1" source="UEzPUAAOIrF-is8g5C7q-115" target="Rv1QnF7w-KIQ6DWg-XOY-6">
          <mxGeometry width="100" relative="1" as="geometry">
            <mxPoint x="569.9999999999998" y="197.5" as="sourcePoint" />
            <mxPoint x="669.9999999999998" y="197.5" as="targetPoint" />
          </mxGeometry>
        </mxCell>
        <mxCell id="Rv1QnF7w-KIQ6DWg-XOY-28" value="" style="edgeStyle=orthogonalEdgeStyle;html=1;endArrow=block;elbow=vertical;startArrow=block;startFill=1;endFill=1;strokeColor=#545B64;rounded=0;" edge="1" parent="1" source="UEzPUAAOIrF-is8g5C7q-115" target="UEzPUAAOIrF-is8g5C7q-120">
          <mxGeometry width="100" relative="1" as="geometry">
            <mxPoint x="579.9999999999998" y="210" as="sourcePoint" />
            <mxPoint x="679.9999999999998" y="210" as="targetPoint" />
            <Array as="points">
              <mxPoint x="540" y="290" />
              <mxPoint x="540" y="459" />
            </Array>
          </mxGeometry>
        </mxCell>
        <mxCell id="Rv1QnF7w-KIQ6DWg-XOY-29" value="" style="edgeStyle=orthogonalEdgeStyle;html=1;endArrow=block;elbow=vertical;startArrow=none;endFill=1;strokeColor=#545B64;rounded=0;dashed=1;" edge="1" parent="1" source="Rv1QnF7w-KIQ6DWg-XOY-6" target="UEzPUAAOIrF-is8g5C7q-120">
          <mxGeometry width="100" relative="1" as="geometry">
            <mxPoint x="469" y="650" as="sourcePoint" />
            <mxPoint x="348" y="469.0000000000002" as="targetPoint" />
            <Array as="points">
              <mxPoint x="624" y="370" />
              <mxPoint x="624" y="370" />
            </Array>
          </mxGeometry>
        </mxCell>
        <mxCell id="Rv1QnF7w-KIQ6DWg-XOY-31" value="" style="edgeStyle=orthogonalEdgeStyle;html=1;endArrow=block;elbow=vertical;startArrow=none;endFill=1;strokeColor=#545B64;rounded=0;dashed=1;" edge="1" parent="1" source="Rv1QnF7w-KIQ6DWg-XOY-12" target="Rv1QnF7w-KIQ6DWg-XOY-15">
          <mxGeometry width="100" relative="1" as="geometry">
            <mxPoint x="268" y="688.9999999999998" as="sourcePoint" />
            <mxPoint x="309.9999999999998" y="688.9999999999998" as="targetPoint" />
            <Array as="points">
              <mxPoint x="219" y="769" />
            </Array>
          </mxGeometry>
        </mxCell>
        <mxCell id="Rv1QnF7w-KIQ6DWg-XOY-34" value="" style="edgeStyle=orthogonalEdgeStyle;html=1;endArrow=block;elbow=vertical;startArrow=none;endFill=1;strokeColor=#545B64;rounded=0;dashed=1;entryX=0.849;entryY=1.006;entryDx=0;entryDy=0;entryPerimeter=0;" edge="1" parent="1" source="Rv1QnF7w-KIQ6DWg-XOY-15" target="Rv1QnF7w-KIQ6DWg-XOY-30">
          <mxGeometry width="100" relative="1" as="geometry">
            <mxPoint x="468.9999999999998" y="650" as="sourcePoint" />
            <mxPoint x="468.9999999999998" y="328" as="targetPoint" />
            <Array as="points">
              <mxPoint x="617" y="670" />
              <mxPoint x="617" y="670" />
            </Array>
          </mxGeometry>
        </mxCell>
      </root>
    </mxGraphModel>
  </diagram>
</mxfile>
